<svg xmlns="http://www.w3.org/2000/svg" viewBox="0 6.25 158.85000610351562 37.5" data-asc="0.86" width="158.85000610351562" height="37.5"><defs/><g fill="#000000"><g transform="translate(0, 0)"><path d="M30.90 33.55Q30.90 35.85 30.23 37.73Q29.55 39.60 27.83 40.92Q26.10 42.25 23.10 43Q20.10 43.75 15.45 43.75Q10.80 43.75 7.80 43Q4.80 42.25 3.08 40.92Q1.35 39.60 0.67 37.73Q0 35.85 0 33.55L0 8.80Q0 7.85 0.42 7.42Q0.85 7 1.80 7L9.65 7Q10.60 7 11.03 7.42Q11.45 7.85 11.45 8.80L11.45 31.60Q11.45 32.60 12.20 33.27Q12.95 33.95 15.55 33.95Q18.20 33.95 18.95 33.27Q19.70 32.60 19.70 31.60L19.70 8.80Q19.70 7.85 20.13 7.42Q20.55 7 21.50 7L29.10 7Q30.05 7 30.48 7.42Q30.90 7.85 30.90 8.80L30.90 33.55ZM38.55 43Q37.60 43 37.18 42.58Q36.75 42.15 36.75 41.20L36.75 35.25Q36.75 34.30 37.18 33.88Q37.60 33.45 38.55 33.45L43.50 33.45L43.50 16.65L38.55 16.65Q37.60 16.65 37.18 16.22Q36.75 15.80 36.75 14.85L36.75 8.80Q36.75 7.85 37.18 7.42Q37.60 7 38.55 7L59.85 7Q60.80 7 61.23 7.42Q61.65 7.85 61.65 8.80L61.65 14.85Q61.65 15.80 61.23 16.22Q60.80 16.65 59.85 16.65L55 16.65L55 33.45L59.85 33.45Q60.80 33.45 61.23 33.88Q61.65 34.30 61.65 35.25L61.65 41.20Q61.65 42.15 61.23 42.58Q60.80 43 59.85 43L38.55 43ZM90.65 43L68.55 43Q67.60 43 67.17 42.58Q66.75 42.15 66.75 41.20L66.75 35.15Q66.75 34.20 67.17 33.77Q67.60 33.35 68.55 33.35L74.15 33.35L74.15 16.65L69.55 16.65Q68.60 16.65 68.17 16.22Q67.75 15.80 67.75 14.85L67.75 8.80Q67.75 7.85 68.17 7.42Q68.60 7 69.55 7L84.05 7Q85 7 85.42 7.42Q85.85 7.85 85.85 8.80L85.85 33.35L90.65 33.35Q91.60 33.35 92.02 33.77Q92.45 34.20 92.45 35.15L92.45 41.20Q92.45 42.15 92.02 42.58Q91.60 43 90.65 43ZM127.85 33.55Q127.85 35.85 127.20 37.73Q126.55 39.60 124.85 40.92Q123.15 42.25 120.17 43Q117.20 43.75 112.60 43.75Q108 43.75 105.02 43Q102.05 42.25 100.35 40.92Q98.65 39.60 97.97 37.73Q97.30 35.85 97.30 33.55L97.30 16.50Q97.30 14.20 97.97 12.32Q98.65 10.45 100.35 9.10Q102.05 7.75 105.02 7Q108 6.25 112.60 6.25Q117.20 6.25 120.17 7Q123.15 7.75 124.85 9.10Q126.55 10.45 127.20 12.32Q127.85 14.20 127.85 16.50L127.85 33.55M108.60 31.75Q108.60 32.75 109.32 33.42Q110.05 34.10 112.60 34.10Q115.15 34.10 115.88 33.42Q116.60 32.75 116.60 31.75L116.60 18.30Q116.60 17.35 115.88 16.67Q115.15 16 112.60 16Q110.05 16 109.32 16.67Q108.60 17.35 108.60 18.30L108.60 31.75ZM157.05 43L134.95 43Q134 43 133.57 42.58Q133.15 42.15 133.15 41.20L133.15 35.15Q133.15 34.20 133.57 33.77Q134 33.35 134.95 33.35L140.55 33.35L140.55 16.65L135.95 16.65Q135 16.65 134.57 16.22Q134.15 15.80 134.15 14.85L134.15 8.80Q134.15 7.85 134.57 7.42Q135 7 135.95 7L150.45 7Q151.40 7 151.82 7.42Q152.25 7.85 152.25 8.80L152.25 33.35L157.05 33.35Q158 33.35 158.43 33.77Q158.85 34.20 158.85 35.15L158.85 41.20Q158.85 42.15 158.43 42.58Q158 43 157.05 43Z"/></g></g></svg>